<svg width="211" height="36" viewBox="0 0 211 36" fill="none" xmlns="http://www.w3.org/2000/svg">
<path d="M9.28851 30.0748H13.5792C14.3283 29.2575 14.8562 28.4403 15.1626 27.623C15.5032 26.7717 15.6734 25.5288 15.6734 23.8942V0.244528H22.6713V21.3403C22.6713 23.077 22.6202 24.4391 22.518 25.4266C22.4499 26.3801 22.2456 27.5549 21.9051 28.9511C21.3262 31.4369 19.7257 33.7866 17.1036 36H5.76405C3.14198 33.8547 1.54149 31.505 0.962596 28.9511C0.451804 26.8738 0.196408 24.3369 0.196408 21.3403V0.244528H7.19426V23.8942C7.19426 25.5288 7.3475 26.7717 7.65398 27.623C7.99451 28.4403 8.53935 29.2575 9.28851 30.0748ZM43.275 36L33.7231 16.2323L33.4677 16.3345L33.7742 22.3618V36H27.3382V0.244528H32.4972L41.8958 20.7784L42.1512 20.6762L41.5893 14.3935V0.244528H48.0253V36H43.275ZM52.6723 36V9.89851H59.4148V36H52.6723ZM52.6723 0.244528H59.4148V7.14023H52.6723V0.244528ZM85.9644 0.244528L78.7112 36H69.1083L61.855 0.244528H69.2105L72.0198 16.7942L73.7565 27.5208H74.063L75.7997 16.7942L78.609 0.244528H85.9644ZM88.6932 36V0.244528H107.031V6.37404H95.691V14.9043H105.805V20.8295H95.691V30.0748H107.235V36H88.6932ZM111.19 0.244528H124.777C126.922 0.959638 128.744 2.2877 130.243 4.22871C131.775 6.13567 132.541 8.48531 132.541 11.2776C132.541 15.8407 130.736 19.1949 127.127 21.3403L132.286 36H125.135L120.793 22.9748H118.086V36H111.19V0.244528ZM118.086 6.37404V17.2539H122.479C123.057 17.1177 123.687 16.5388 124.368 15.5172C125.084 14.4616 125.441 13.2357 125.441 11.8395C125.441 10.4434 125.135 9.21745 124.522 8.16181C123.943 7.10617 123.364 6.51025 122.785 6.37404H118.086ZM139.5 0.244528H151.759V6.37404H141.952L141.798 6.68051L149.971 21.5957C151.64 24.5923 152.474 26.8738 152.474 28.4403C152.474 31.8796 151.333 34.3995 149.052 36H135.516V30.0748H146.089L146.242 29.7683L137.048 13.2697C135.72 10.886 135.056 8.94503 135.056 7.4467C135.056 3.90521 136.537 1.50448 139.5 0.244528ZM155.779 36V9.89851H162.521V36H155.779ZM155.779 0.244528H162.521V7.14023H155.779V0.244528ZM172.93 6.37404H165.217V0.244528H187.589V6.37404H179.876V36H172.93V6.37404ZM203.118 36H195.66V24.0985L188.101 0.244528H195.047L198.214 11.1244L199.287 17.4072H199.491L200.564 11.1244L203.731 0.244528H210.678L203.118 24.0985V36Z" fill="black"/>
</svg>
