<svg width="213" height="71" viewBox="0 0 213 71" fill="none" xmlns="http://www.w3.org/2000/svg">
<path d="M11.2885 49.0748H15.5792C16.3283 48.2575 16.8562 47.4403 17.1626 46.623C17.5032 45.7717 17.6734 44.5288 17.6734 42.8942V19.2445H24.6713V40.3403C24.6713 42.077 24.6202 43.4391 24.518 44.4266C24.4499 45.3801 24.2456 46.5549 23.9051 47.9511C23.3262 50.4369 21.7257 52.7866 19.1036 55H7.76405C5.14198 52.8547 3.54149 50.505 2.9626 47.9511C2.4518 45.8738 2.19641 43.3369 2.19641 40.3403V19.2445H9.19426V42.8942C9.19426 44.5288 9.3475 45.7717 9.65398 46.623C9.99451 47.4403 10.5394 48.2575 11.2885 49.0748ZM45.275 55L35.7231 35.2323L35.4677 35.3345L35.7742 41.3618V55H29.3382V19.2445H34.4972L43.8958 39.7784L44.1512 39.6762L43.5893 33.3935V19.2445H50.0253V55H45.275ZM54.6723 55V28.8985H61.4148V55H54.6723ZM54.6723 19.2445H61.4148V26.1402H54.6723V19.2445ZM87.9644 19.2445L80.7112 55H71.1083L63.855 19.2445H71.2105L74.0198 35.7942L75.7565 46.5208H76.063L77.7997 35.7942L80.609 19.2445H87.9644ZM90.6932 55V19.2445H109.031V25.374H97.691V33.9043H107.805V39.8295H97.691V49.0748H109.235V55H90.6932ZM113.19 19.2445H126.777C128.922 19.9596 130.744 21.2877 132.243 23.2287C133.775 25.1357 134.541 27.4853 134.541 30.2776C134.541 34.8407 132.736 38.1949 129.127 40.3403L134.286 55H127.135L122.793 41.9748H120.086V55H113.19V19.2445ZM120.086 25.374V36.2539H124.479C125.057 36.1177 125.687 35.5388 126.368 34.5172C127.084 33.4616 127.441 32.2357 127.441 30.8395C127.441 29.4434 127.135 28.2175 126.522 27.1618C125.943 26.1062 125.364 25.5102 124.785 25.374H120.086ZM141.5 19.2445H153.759V25.374H143.952L143.798 25.6805L151.971 40.5957C153.64 43.5923 154.474 45.8738 154.474 47.4403C154.474 50.8796 153.333 53.3995 151.052 55H137.516V49.0748H148.089L148.242 48.7683L139.048 32.2697C137.72 29.886 137.056 27.945 137.056 26.4467C137.056 22.9052 138.537 20.5045 141.5 19.2445ZM157.779 55V28.8985H164.521V55H157.779ZM157.779 19.2445H164.521V26.1402H157.779V19.2445ZM174.93 25.374H167.217V19.2445H189.589V25.374H181.876V55H174.93V25.374ZM205.118 55H197.66V43.0985L190.101 19.2445H197.047L200.214 30.1244L201.287 36.4072H201.491L202.564 30.1244L205.731 19.2445H212.678L205.118 43.0985V55Z" fill="black"/>
<rect x="3" y="62" width="60" height="6" fill="black"/>
</svg>
